<?xml version="1.0" standalone="no"?>
<!DOCTYPE svg PUBLIC "-//W3C//DTD SVG 20010904//EN"
 "http://www.w3.org/TR/2001/REC-SVG-20010904/DTD/svg10.dtd">
<svg version="1.0" xmlns="http://www.w3.org/2000/svg"
 width="1000.000000pt" height="1000.000000pt" viewBox="0 0 1000.000000 1000.000000"
 preserveAspectRatio="xMidYMid meet">
<metadata>
Created by potrace 1.11, written by Peter Selinger 2001-2013
</metadata>
<g transform="translate(0.000000,1000.000000) scale(0.100000,-0.100000)"
fill="#000000" stroke="none">
<path d="M1720 5000 l0 -3430 100 0 100 0 0 -120 0 -120 1060 0 1060 0 0 1385
0 1385 1060 0 1060 0 0 -1265 0 -1265 100 0 100 0 0 -120 0 -120 1060 0 1060
0 0 3430 0 3430 -100 0 -100 0 0 120 0 120 -1060 0 -1060 0 0 -1205 0 -1205
-1060 0 -1060 0 0 1085 0 1085 -100 0 -100 0 0 120 0 120 -1060 0 -1060 0 0
-3430z"/>
</g>
</svg>
